Coordinates
version=1
nRows=26
nColumns=11
inDegrees=yes

Units are S.I. units (second, meters, Newtons, ...)
If the header above contains a line with 'inDegrees', this indicates whether rotational values are in degrees (yes) or radians (no).

endheader
time	pelvis_tilt	pelvis_tx	pelvis_ty	hip_flexion_l	hip_flexion_r	knee_angle_l	knee_angle_r	ankle_angle_l	ankle_angle_r	lumbar_extension
      3.81000000	     -1.85789210	      0.88284106	      0.92652266	     10.72147122	     25.44456606	    -26.70282720	    -48.76813206	     13.74846681	     -7.43424833	     -5.06273688
      3.82000000	     -1.28223063	      0.89281134	      0.92552059	      9.56434583	     25.90813127	    -27.03375500	    -47.48288758	     14.54604121	     -7.21043852	     -5.77030551
      3.83000000	     -0.67783319	      0.90299915	      0.92434017	      8.39670623	     26.21931531	    -27.44101149	    -45.95799691	     15.43146269	     -6.97561756	     -6.47795105
      3.84000000	     -0.01843720	      0.91337471	      0.92294104	      7.14738724	     26.32710579	    -27.83266808	    -44.20612868	     16.36453521	     -6.70324973	     -7.22667274
      3.85000000	      0.67496837	      0.92403545	      0.92143059	      5.84010923	     26.26381894	    -28.20749045	    -42.20102556	     17.22363960	     -6.50243822	     -7.97823508
      3.86000000	      1.34411574	      0.93472318	      0.91972998	      4.55826354	     26.10639864	    -28.61065158	    -40.01480510	     18.13841049	     -6.32359317	     -8.70475987
      3.87000000	      1.98986338	      0.94547908	      0.91784980	      3.31521615	     25.85799134	    -29.07100034	    -37.58846383	     19.07449483	     -6.32765405	     -9.39885062
      3.88000000	      2.68271963	      0.95665906	      0.91585479	      1.96131399	     25.38199829	    -29.45499585	    -34.98899040	     19.94524057	     -6.03333959	    -10.09110831
      3.89000000	      3.32894850	      0.96788238	      0.91370613	      0.68497545	     24.84347328	    -29.92642034	    -32.21511059	     20.86677179	     -5.99264223	    -10.73126548
      3.90000000	      3.86646911	      0.97927916	      0.91135480	     -0.52881714	     24.32355144	    -30.32197963	    -29.33758506	     21.73380489	     -5.86108398	    -11.22310128
      3.91000000	      4.36908133	      0.99089595	      0.90891622	     -1.75352003	     23.69490045	    -30.65624840	    -26.37949674	     22.54189323	     -5.74777093	    -11.66019607
      3.92000000	      4.74613465	      1.00266536	      0.90639155	     -2.87662343	     23.18419347	    -30.94724332	    -23.58400859	     23.19908409	     -5.62407954	    -11.94207433
      3.93000000	      5.04368105	      1.01450994	      0.90387215	     -3.94677353	     22.73405997	    -31.16807141	    -20.96272653	     23.72737395	     -5.53850883	    -12.14239570
      3.94000000	      5.25813633	      1.02641175	      0.90145201	     -4.88977006	     22.37861438	    -31.45756046	    -18.66928453	     24.05105938	     -5.51472246	    -12.24179068
      3.95000000	      5.37997108	      1.03867452	      0.89902828	     -5.76527126	     22.14635975	    -31.71706940	    -16.84189543	     24.27622431	     -5.55275697	    -12.19477830
      3.96000000	      5.40597694	      1.05098548	      0.89671022	     -6.48108586	     22.07029426	    -32.09196919	    -15.55562125	     24.43786253	     -5.68725106	    -12.06092247
      3.97000000	      5.37033608	      1.06345160	      0.89456379	     -7.10337574	     22.07669647	    -32.47516647	    -14.80227558	     24.29972458	     -5.91783588	    -11.83386196
      3.98000000	      5.19621955	      1.07604134	      0.89248476	     -7.49240925	     22.27445963	    -33.01609168	    -14.62917541	     23.91202281	     -6.12418205	    -11.44905725
      3.99000000	      4.99550396	      1.08890528	      0.89062453	     -7.83170814	     22.43050669	    -33.60093144	    -14.80043018	     23.32430573	     -6.32233085	    -11.00882457
      4.00000000	      4.76058088	      1.10201920	      0.88887094	     -8.03520898	     22.53410180	    -34.32846189	    -15.29261832	     22.49145686	     -6.32359834	    -10.49276425
      4.01000000	      4.56102600	      1.11563036	      0.88734061	     -8.25192036	     22.44624866	    -35.13119413	    -15.96228810	     21.46285286	     -6.27357828	     -9.96120317
      4.02000000	      4.28599369	      1.12938274	      0.88605015	     -8.36122899	     22.41209090	    -35.95745657	    -16.83889081	     20.19458732	     -7.26570224	     -9.34554795
      4.03000000	      3.73059088	      1.14280791	      0.88502470	     -8.03277661	     23.00575879	    -36.88544461	    -18.51991068	     18.60477228	     -7.66413464	     -8.46841850
      4.04000000	      3.13248780	      1.15623803	      0.88425576	     -7.56319929	     24.05036372	    -37.92658600	    -21.01693623	     16.51324630	     -6.43760851	     -7.55249456
      4.05000000	      2.59680119	      1.16973933	      0.88387349	     -7.02047212	     25.02482253	    -39.13684051	    -23.35186570	     14.28431112	     -5.93996908	     -6.69586146
      4.06000000	      2.38095141	      1.18347200	      0.88418507	     -6.68834693	     25.24260232	    -40.45623920	    -24.96087835	     11.33309628	     -5.59853245	     -6.20482745
